<?xml version="1.0" encoding="utf-8"?>
<!-- Generator: Adobe Illustrator 19.2.1, SVG Export Plug-In . SVG Version: 6.00 Build 0)  -->
<svg version="1.1" id="Layer_1" xmlns="http://www.w3.org/2000/svg" xmlns:xlink="http://www.w3.org/1999/xlink" x="0px" y="0px"
	 viewBox="0 0 42.5 29.9" style="enable-background:new 0 0 42.5 29.9;" xml:space="preserve">
<style type="text/css">
	.st0{fill:#FFFFFF;}
</style>
<g id="XMLID_877_">
	<g id="XMLID_878_">
		<g id="XMLID_879_">
			<g id="XMLID_880_">
				<path id="XMLID_881_" class="st0" d="M37,8.8c0.8-0.9,1.2-2.1,1.2-3.3c0,0,0-0.1,0-0.1c0,0,0-0.1,0-0.1C38.3,2.3,36,0,33.1,0
					c0,0-0.1,0-0.1,0c0,0-0.1,0-0.1,0c-2.8,0-5.1,2.3-5.1,5.1c0,0,0,0.1,0,0.1c0,0,0,0.1,0,0.1c0,1.4,0.5,2.6,1.4,3.5
					c-0.4,0.2-0.7,0.4-1,0.6c-0.8-2.9-3.5-5.1-6.7-5.1c-0.1,0-0.1,0-0.2,0c-0.1,0-0.1,0-0.2,0c-3.2,0-5.9,2.1-6.7,5.1
					C13.9,9.2,13.5,9,13,8.8c0.8-0.9,1.2-2.1,1.2-3.3c0,0,0-0.1,0-0.1c0,0,0-0.1,0-0.1c0-2.8-2.3-5.1-5.1-5.1C9.1,0,9,0,9,0
					c0,0-0.1,0-0.1,0C6,0,3.7,2.3,3.7,5.1c0,0,0,0.1,0,0.1c0,0,0,0.1,0,0.1C3.7,6.8,4.2,8,5.1,9c-3,1.4-5.1,4.5-5.1,8.1
					c0,0.9,0.7,1.7,1.7,1.7s1.7-0.7,1.7-1.7c0-3.1,2.5-5.7,5.7-5.7c0.1,0,0.2,0,0.3,0c0.1,0,0.1,0,0.2,0c3.1,0,5.6,2.5,5.6,5.7
					c0,0,0,0,0,0C12.7,19.2,9,23.1,9,27.7c0,1.2,1,2.3,2.3,2.3c1.2,0,2.3-1,2.3-2.3c0-4.3,3.5-7.7,7.7-7.7c0.1,0,0.2,0,0.4,0
					c0.1,0,0.2,0,0.4,0c4.3,0,7.7,3.5,7.7,7.7c0,1.2,1,2.3,2.3,2.3c1.2,0,2.3-1,2.3-2.3c0-4.8-2.8-9-6.8-11c0.2-3,2.6-5.3,5.7-5.3
					c0.1,0,0.2,0,0.3,0c0.1,0,0.2,0,0.3,0c3.1,0,5.7,2.5,5.7,5.7c0,0.9,0.7,1.7,1.7,1.7s1.7-0.7,1.7-1.7C42.5,13.3,40.3,10.1,37,8.8
					z M10.9,5.4c0,1-0.8,1.8-1.8,1.8c0,0-0.1,0-0.1,0c0,0-0.1,0-0.1,0C7.8,7.3,7,6.4,7,5.4c0,0,0-0.1,0-0.1c0,0,0-0.1,0-0.1
					c0-1,0.8-1.8,1.8-1.8c0,0,0.1,0,0.1,0c0,0,0.1,0,0.1,0c1,0,1.8,0.8,1.8,1.8c0,0,0,0.1,0,0.1C10.9,5.3,10.9,5.4,10.9,5.4z
					 M23.9,11.8c0,1.4-1.1,2.5-2.5,2.5c-0.1,0-0.1,0-0.2,0c-0.1,0-0.1,0-0.2,0c-1.4,0-2.5-1.1-2.5-2.5c0-0.1,0-0.1,0-0.2
					c0-0.1,0-0.1,0-0.2c0-1.4,1.1-2.5,2.5-2.5c0.1,0,0.1,0,0.2,0c0.1,0,0.1,0,0.2,0c1.4,0,2.5,1.1,2.5,2.5c0,0.1,0,0.1,0,0.2
					C23.9,11.7,23.9,11.8,23.9,11.8z M35,5.4c0,1-0.8,1.8-1.8,1.8c0,0-0.1,0-0.1,0c0,0-0.1,0-0.1,0c-1,0-1.8-0.8-1.8-1.8
					c0,0,0-0.1,0-0.1c0,0,0-0.1,0-0.1c0-1,0.8-1.8,1.8-1.8c0,0,0.1,0,0.1,0c0,0,0.1,0,0.1,0c1,0,1.8,0.8,1.8,1.8c0,0,0,0.1,0,0.1
					C35,5.3,35,5.4,35,5.4z"/>
			</g>
		</g>
	</g>
</g>
</svg>
