<?xml version="1.0" encoding="utf-8"?>
<!-- Generator: Adobe Illustrator 19.2.1, SVG Export Plug-In . SVG Version: 6.00 Build 0)  -->
<svg version="1.1" id="Layer_1" xmlns="http://www.w3.org/2000/svg" xmlns:xlink="http://www.w3.org/1999/xlink" x="0px" y="0px"
	 viewBox="0 0 42.4 34.5" style="enable-background:new 0 0 42.4 34.5;" xml:space="preserve">
<style type="text/css">
	.st0{fill:#FFFFFF;stroke:#FFFFFF;stroke-width:2.6678;stroke-miterlimit:10;}
</style>
<g id="XMLID_886_">
	<g id="XMLID_887_">
		<path id="XMLID_888_" class="st0" d="M21.1,33.1l0.4,0c2.8-0.1,9.7-0.9,14.1-5.3C41.5,22,41,12.4,41,12l0-0.5l-0.5,0
			c-0.2,0-2.4-0.1-5.4,0.4c-0.7-3.3-1.9-5.6-1.9-5.7L33,5.7l-0.5,0.2c-0.1,0-2.5,0.9-5.3,2.8c-2.3-3.9-5.2-6.4-5.4-6.6l-0.3-0.3
			L21,2c-0.2,0.2-3.2,2.7-5.5,6.7c-2.8-1.9-5.2-2.7-5.3-2.8L9.8,5.8L9.6,6.2c-0.1,0.1-1.3,2.6-2,6.1c-3.1-0.6-5.6-0.5-5.8-0.5
			l-0.5,0l0,0.5c0,0.4-0.5,9.9,5.2,15.6C11.2,32.5,18.3,33.1,21.1,33.1z M40,12.5c0,2-0.3,9.8-5,14.5c-3.6,3.6-9,4.6-12.1,4.9
			c2.2-2.2,7-7.7,7-14.4c0-1-0.1-1.9-0.3-2.8C33.8,12.7,38.5,12.5,40,12.5z M32.4,7.1c0.4,0.8,1.1,2.7,1.6,5
			c-1.5,0.3-3.1,0.8-4.7,1.6c-0.4-1.5-1-2.9-1.6-4.1C29.7,8.2,31.6,7.4,32.4,7.1z M21.4,3.2c1.5,1.4,7.4,7.4,7.4,14.4
			c0,7-5.9,12.9-7.4,14.3c-1.5-1.4-7.4-7.3-7.4-14.3c0-0.9,0.1-1.8,0.3-2.7l0.1-0.1c0,0,0,0,0,0C15.5,9,20.1,4.4,21.4,3.2z
			 M10.4,7.1C11.2,7.5,13,8.3,15,9.6c-0.7,1.4-1.4,2.9-1.7,4.5c-1.6-0.8-3.1-1.3-4.6-1.7C9.2,10,10,8,10.4,7.1z M13.1,15.3
			c-0.1,0.7-0.2,1.5-0.2,2.3c0,6.7,4.8,12.2,7.1,14.4c-3.2-0.2-8.8-1.1-12.6-4.9c-4.7-4.7-4.9-12.3-4.9-14.3
			C4,12.8,8.8,13,13.1,15.3z"/>
	</g>
</g>
</svg>
