<?xml version="1.0" encoding="utf-8"?>
<!-- Generator: Adobe Illustrator 19.2.1, SVG Export Plug-In . SVG Version: 6.00 Build 0)  -->
<svg version="1.1" id="Layer_1" xmlns="http://www.w3.org/2000/svg" xmlns:xlink="http://www.w3.org/1999/xlink" x="0px" y="0px"
	 viewBox="0 0 37 37" style="enable-background:new 0 0 37 37;" xml:space="preserve">
<style type="text/css">
	.st0{fill:#FFFFFF;}
</style>
<g id="XMLID_864_">
	<g id="XMLID_865_">
		<path id="XMLID_866_" class="st0" d="M37,18.5c0-1-0.1-2-0.2-3c0,0,0,0,0,0c0,0,0,0,0,0c-0.5-2.9-1.6-5.5-3.2-7.7
			c0,0,0-0.1-0.1-0.1C30.1,3,24.6,0,18.5,0c-6.2,0-11.7,3-15,7.7c0,0-0.1,0.1-0.1,0.1C1.3,10.8,0,14.5,0,18.5c0,1.7,0.2,3.3,0.6,4.8
			c0,0,0,0,0,0c0,0.2,0,0.3,0.2,0.5C3.1,31.4,10.1,37,18.5,37s15.4-5.6,17.7-13.2c0.1-0.1,0.2-0.3,0.2-0.5c0,0,0,0,0,0
			C36.8,21.8,37,20.1,37,18.5z M18.5,1.2c2.8,0,5.4,0.7,7.7,1.8c-2.4,0.4-5,0.7-7.7,0.7c-2.7,0-5.3-0.2-7.7-0.7
			C13.1,1.9,15.7,1.2,18.5,1.2z M9.2,4c2.8,0.6,6,1,9.3,1c3.3,0,6.5-0.3,9.3-1c1.6,1,2.9,2.2,4.1,3.7C28.6,8.5,23,9.2,18.5,9.2
			c-4.9,0-10-0.6-13.5-1.5C6.2,6.3,7.6,5,9.2,4z M4.2,8.8c3.7,1,9.1,1.6,14.3,1.6c5.1,0,11-0.9,14.2-1.8c1.3,1.9,2.2,4,2.7,6.3
			c-5.4,0.7-11,1-16.9,1S7,15.7,1.6,15C2,12.8,2.9,10.7,4.2,8.8z M18.5,35.8c-3.8,0-7.3-1.2-10.1-3.3c3.3,0.1,6.7,0.2,10.1,0.2
			c3.4,0,6.8-0.1,10.1-0.2C25.8,34.5,22.3,35.8,18.5,35.8z M30.2,31.2C30.2,31.2,30.2,31.2,30.2,31.2c-7.7,0.4-15.7,0.4-23.3,0
			c0,0,0,0-0.1,0c-2.1-1.9-3.7-4.4-4.6-7.1c5.3,0.4,10.8,0.6,16.3,0.6c5.6,0,11-0.2,16.3-0.6C33.9,26.8,32.3,29.2,30.2,31.2z
			 M35.2,22.8c-5.4,0.4-11,0.6-16.7,0.6S7.2,23.2,1.8,22.8c-0.4-1.4-0.5-2.8-0.5-4.3c0-0.8,0.1-1.5,0.2-2.3c5.4,0.7,11.2,1,17.1,1
			c5.9,0,11.7-0.4,17.1-1c0.1,0.7,0.2,1.5,0.2,2.3C35.8,20,35.6,21.4,35.2,22.8z"/>
	</g>
</g>
</svg>
