<?xml version="1.0" encoding="utf-8"?>
<!-- Generator: Adobe Illustrator 19.2.1, SVG Export Plug-In . SVG Version: 6.00 Build 0)  -->
<svg version="1.1" id="Layer_1" xmlns="http://www.w3.org/2000/svg" xmlns:xlink="http://www.w3.org/1999/xlink" x="0px" y="0px"
	 viewBox="0 0 39.9 31.6" style="enable-background:new 0 0 39.9 31.6;" xml:space="preserve">
<style type="text/css">
	.st0{fill:#FFFFFF;}
</style>
<g id="XMLID_895_">
	<g id="XMLID_896_">
		<path id="XMLID_899_" class="st0" d="M39.8,10.4c-0.1-0.3-0.4-0.4-0.7-0.4h-20c-0.5,0-0.8,0.4-0.8,0.8v2.5H15v-2.5
			c0-0.5-0.4-0.8-0.8-0.8h-2.9c-6,0-11,4.7-11.2,10.5c-0.1,3,1,5.7,3,7.9c2.1,2.1,4.8,3.3,7.8,3.3c5,0,9.5-3.6,10.6-8.5
			c0.2-1,1.1-1.7,2.1-1.8l10.7-1.3c0.3,0,0.5-0.2,0.6-0.4l5-8.3C39.9,11,39.9,10.7,39.8,10.4z"/>
		<path id="XMLID_898_" class="st0" d="M15.2,8.1c0.2,0.2,0.4,0.2,0.6,0.2s0.4-0.1,0.6-0.2c0.3-0.3,0.3-0.9,0-1.2l-3.3-3.3
			c-0.3-0.3-0.9-0.3-1.2,0c-0.3,0.3-0.3,0.9,0,1.2L15.2,8.1z"/>
		<path id="XMLID_897_" class="st0" d="M17.5,5c0.5,0,0.8-0.4,0.8-0.8V0.8c0-0.5-0.4-0.8-0.8-0.8s-0.8,0.4-0.8,0.8v3.3
			C16.6,4.6,17,5,17.5,5z"/>
	</g>
</g>
</svg>
